<svg xmlns="http://www.w3.org/2000/svg" width="37.729" height="37.729" viewBox="0 0 37.729 37.729">
  <g id="chat" transform="translate(-0.005)">
    <g id="Group_410" data-name="Group 410" transform="translate(0.005)">
      <path id="Path_761" data-name="Path 761" d="M35.616,0H2.127A2.122,2.122,0,0,0,.007,2.12v9.573a2.123,2.123,0,0,0,2.12,2.122h1.6l.02,3.088a.737.737,0,0,0,1.172.59l5.028-3.678h5.913l2.4,3.5a.737.737,0,0,0,1.215,0l2.4-3.5H27.8l5.025,3.678a.737.737,0,0,0,1.172-.589l.022-3.089h1.6a2.123,2.123,0,0,0,2.12-2.122V2.12A2.122,2.122,0,0,0,35.616,0Zm.646,11.693a.648.648,0,0,1-.646.648H33.284a.737.737,0,0,0-.737.732l-.017,2.381-4.058-2.97a.737.737,0,0,0-.435-.142H21.494a.737.737,0,0,0-.607.32L18.87,15.6,16.854,12.66a.737.737,0,0,0-.607-.32H9.7a.737.737,0,0,0-.435.142L5.21,15.453l-.016-2.38a.737.737,0,0,0-.737-.732H2.127a.648.648,0,0,1-.646-.648V2.12a.647.647,0,0,1,.646-.646H35.616a.647.647,0,0,1,.646.646Z" transform="translate(-0.007)" fill="#24ae8f"/>
      <path id="Path_762" data-name="Path 762" d="M35.175,274.987a4.038,4.038,0,1,0-6.92,0,4.4,4.4,0,0,0-1.4,1.027,6.008,6.008,0,0,0-3.5-3.635,5.468,5.468,0,1,0-8.967,0,6.009,6.009,0,0,0-3.5,3.634,4.394,4.394,0,0,0-1.4-1.027,4.038,4.038,0,1,0-6.92,0,4.395,4.395,0,0,0-2.556,3.966v2.387a.737.737,0,0,0,.737.737H15.559a.737.737,0,0,0,0-1.474H12.037v-2.685a4.491,4.491,0,0,1,3.48-4.348,5.45,5.45,0,0,0,6.7,0,4.49,4.49,0,0,1,3.48,4.348V280.6H22.177a.737.737,0,0,0,0,1.474H37a.737.737,0,0,0,.737-.737v-2.387A4.394,4.394,0,0,0,35.175,274.987ZM6.022,270.343a2.564,2.564,0,1,1-2.565,2.566A2.567,2.567,0,0,1,6.022,270.343ZM1.479,280.6v-1.651a2.908,2.908,0,0,1,2.156-2.791,4.028,4.028,0,0,0,4.774,0,2.908,2.908,0,0,1,2.155,2.791V280.6Zm13.4-11.349a3.994,3.994,0,1,1,3.994,3.994A4,4,0,0,1,14.874,269.255Zm16.842,1.088a2.564,2.564,0,1,1-2.565,2.566A2.567,2.567,0,0,1,31.716,270.343Zm-4.543,8.611a2.908,2.908,0,0,1,2.156-2.791,4.028,4.028,0,0,0,4.774,0,2.908,2.908,0,0,1,2.157,2.791V280.6H27.173Z" transform="translate(-0.005 -244.349)" fill="#24ae8f"/>
      <path id="Path_763" data-name="Path 763" d="M199.358,55.813H180.169a.737.737,0,1,0,0,1.474h19.189a.737.737,0,1,0,0-1.474Z" transform="translate(-166.21 -51.7)" fill="#24ae8f"/>
      <path id="Path_764" data-name="Path 764" d="M52.87,57.287h5.479a.737.737,0,0,0,0-1.474H52.87a.737.737,0,1,0,0,1.474Z" transform="translate(-48.292 -51.7)" fill="#24ae8f"/>
      <path id="Path_765" data-name="Path 765" d="M371.731,111.626h-5.477a.737.737,0,1,0,0,1.474h5.477a.737.737,0,0,0,0-1.474Z" transform="translate(-338.583 -103.4)" fill="#24ae8f"/>
      <path id="Path_766" data-name="Path 766" d="M72.059,111.626H52.87a.737.737,0,1,0,0,1.474H72.059a.737.737,0,0,0,0-1.474Z" transform="translate(-48.292 -103.4)" fill="#24ae8f"/>
      <path id="Path_767" data-name="Path 767" d="M246.723,492a.737.737,0,1,0,0,1.474h0a.737.737,0,1,0,0-1.474Z" transform="translate(-227.86 -455.745)" fill="#24ae8f"/>
    </g>
  </g>
</svg>
