<svg xmlns="http://www.w3.org/2000/svg" width="27.841" height="17.726" viewBox="0 0 27.841 17.726">
  <path id="Path_863" data-name="Path 863" d="M-1.672-.541A13.783,13.783,0,0,0-6.41-2.13c-1.115-1.881-4.04-5.769-5-5.936a9.483,9.483,0,0,1,.921,2.425,6.91,6.91,0,0,1,0,1.965,8.805,8.805,0,0,1-.328,1.47c-.032.082-.344.185-.363.188a1.123,1.123,0,0,1,1.233.432c.776,1.155.962,1,1.129,1-1.2.355-2.439-1.089-3.455-.982a4.619,4.619,0,0,0-1,.237,2.9,2.9,0,0,1,.815-.383,7.157,7.157,0,0,1,.794-.209A13.847,13.847,0,0,0-16.93.295,15.922,15.922,0,0,0-21.7,5.312a8.424,8.424,0,0,0-3.218,2.271s.711-.334,3.2.1c0,0,1.812.836,2.258,1.979A5.064,5.064,0,0,0-20.345,5.9a2.818,2.818,0,0,0-.557.711,4.211,4.211,0,0,1,.92-1.269,7.044,7.044,0,0,1,5.56-1.909c2.843.376,3.955.521,4.375.508-.246-.035-.535-.041-1.177-.146A11.613,11.613,0,0,1-12.471,3.5c-1.331-.39-2.975-2.209-3.888-1.846a6.68,6.68,0,0,0-1.267.75A5.006,5.006,0,0,1-14.715.838a4.977,4.977,0,0,1,3.427,1.338,3.319,3.319,0,0,0,2.3,1.672,15.635,15.635,0,0,0,2.341-.125s-1.274.366-1.776.449-1.942,1.014-2.068,1.641S-8.894,7.026-8.444,7c1.483-.073,3.7-2.067,3.971-2.4a2.62,2.62,0,0,0,.418-.878,8.232,8.232,0,0,1,2.174-.063c.585.167-.188.459.418.564a23.181,23.181,0,0,1,3.6,1.254,7.967,7.967,0,0,1-1.3.418,3.637,3.637,0,0,0,2.09-.585,8.643,8.643,0,0,0-4.6-5.853M-4.222,1.214c-.71-.669,3.344.418,3.553,1.547.132.711-.793.624-1.811,0A12.449,12.449,0,0,1-4.222,1.214" transform="translate(24.915 8.066)" fill="#fff"/>
</svg>
