<svg xmlns="http://www.w3.org/2000/svg"  width="254.831" height="162.233" viewBox="0 0 254.831 162.233">
  <g  id="Group_446" data-name="Group 446" transform="translate(0 0)" opacity="0.288">
    <path id="Path_776" data-name="Path 776" d="M94.4,339.73c15.5,5.356,39.794,7.461,39.794,7.461l-9.949,1.339s7.653,16.835,5.74,17.983-15.5-10.085-17.792-12.148C109.327,351.782,96.7,340.494,94.4,339.73Z" transform="translate(96.528 -218.82)" fill="#fff"/>
    <path id="Path_777" data-name="Path 777" d="M286.713,306.116c-22.442-11.143-33.925-13.265-43.364-14.54-10.2-17.217-36.988-52.8-45.788-54.333,5.073,10.662,7.27,15.88,8.424,22.193a62.946,62.946,0,0,1,0,17.983,80.348,80.348,0,0,1-3,13.456c-.291.75-3.149,1.688-3.315,1.721,0,0,7.135-2.225,11.287,3.955,7.1,10.571,8.8,9.182,10.331,9.182-10.968,3.253-22.32-9.963-31.631-8.991a42.128,42.128,0,0,0-9.12,2.167c2.232-1.466,3.137-1.976,7.462-3.506a64.945,64.945,0,0,1,7.27-1.913s-23.723,3.444-48.211,20.279-42.472,41.323-43.62,45.915c0,0-21.809,8.928-29.462,20.79,0,0,6.505-3.061,29.335.892,0,0,16.581,7.653,20.661,18.112,0,0,3.539-21.555-8.162-34.436-2.4,1.713-5.1,6.5-5.1,6.5a38.622,38.622,0,0,1,8.418-11.606c5.74-5.356,24.871-20.917,50.89-17.473s36.2,4.769,40.049,4.655c-2.249-.32-4.888-.38-10.777-1.339a105.678,105.678,0,0,1-11.414-2.678c-12.181-3.571-27.23-20.215-35.585-16.9-5.587,2.218-7.206,4.208-11.595,6.87,4.2-5.148,16.971-13.991,26.645-14.332,12.691-.446,27.932,7.27,31.376,12.245s10.714,14.922,21.045,15.3a143.241,143.241,0,0,0,21.427-1.148s-11.67,3.348-16.262,4.113-17.779,9.279-18.934,15.018,14.627,11.107,18.743,10.9c13.583-.669,33.889-18.925,36.35-22a23.863,23.863,0,0,0,3.826-8.034s14.54-2.1,19.9-.575-1.722,4.209,3.826,5.166c3.222.555,34.819,10.713,32.906,11.478s-8.8,3.444-11.861,3.827,13.009.382,19.131-5.357C328.8,359.683,322.936,324.1,286.713,306.116Zm-23.339,16.07c-6.505-6.122,30.61,3.826,32.523,14.157,1.2,6.5-7.259,5.709-16.581,0C273.827,332.981,268.6,327.1,263.374,322.185Z" transform="translate(-73.972 -237.243)" fill="#fff"/>
  </g>
</svg>
