<svg id="news" xmlns="http://www.w3.org/2000/svg" width="37.73" height="37.73" viewBox="0 0 37.73 37.73">
  <path id="Path_754" data-name="Path 754" d="M32.228,37.73H5.9a5.9,5.9,0,0,1-5.9-5.9V4.323A4.327,4.327,0,0,1,4.323,0H23.974A4.327,4.327,0,0,1,28.3,4.323v.393h5.109A4.327,4.327,0,0,1,37.73,9.039v22.8a5.9,5.9,0,0,1-5.189,5.853A1.139,1.139,0,0,1,32.228,37.73ZM28.3,7.074v24.76a3.537,3.537,0,1,0,7.074,0V9.039a1.968,1.968,0,0,0-1.965-1.965ZM4.323,2.358A1.968,1.968,0,0,0,2.358,4.323V31.835A3.54,3.54,0,0,0,5.9,35.372H27.122a5.865,5.865,0,0,1-1.182-3.537V4.323a1.968,1.968,0,0,0-1.965-1.965Z" fill="#24ae8f"/>
  <path id="Path_755" data-name="Path 755" d="M11.253,12.432H4.179A1.179,1.179,0,0,1,3,11.253V4.179A1.179,1.179,0,0,1,4.179,3h7.074a1.179,1.179,0,0,1,1.179,1.179v7.074A1.179,1.179,0,0,1,11.253,12.432Zm-5.9-2.358h4.716V5.358H5.358Z" transform="translate(1.716 1.716)" fill="#24ae8f"/>
  <path id="Path_756" data-name="Path 756" d="M16.109,6.358h-3.93a1.179,1.179,0,0,1,0-2.358h3.93a1.179,1.179,0,0,1,0,2.358Z" transform="translate(6.293 2.288)" fill="#24ae8f"/>
  <path id="Path_757" data-name="Path 757" d="M16.109,9.358h-3.93a1.179,1.179,0,0,1,0-2.358h3.93a1.179,1.179,0,0,1,0,2.358Z" transform="translate(6.293 4.005)" fill="#24ae8f"/>
  <path id="Path_758" data-name="Path 758" d="M20.686,13.358H4.179a1.179,1.179,0,1,1,0-2.358H20.686a1.179,1.179,0,1,1,0,2.358Z" transform="translate(1.716 6.293)" fill="#24ae8f"/>
  <path id="Path_759" data-name="Path 759" d="M20.686,17.108H4.179a1.179,1.179,0,1,1,0-2.358H20.686a1.179,1.179,0,1,1,0,2.358Z" transform="translate(1.716 8.438)" fill="#24ae8f"/>
  <path id="Path_760" data-name="Path 760" d="M20.686,20.858H4.179a1.179,1.179,0,1,1,0-2.358H20.686a1.179,1.179,0,1,1,0,2.358Z" transform="translate(1.716 10.584)" fill="#24ae8f"/>
</svg>
