<svg xmlns="http://www.w3.org/2000/svg" viewBox="0 0 128 81.7"><defs><style>.cls-1{fill:#0b1f32;}</style></defs><g id="Layer_2" data-name="Layer 2"><g id="Layer_1-2" data-name="Layer 1"><g id="Group_703" data-name="Group 703"><path id="Path_776" data-name="Path 776" class="cls-1" d="M96,60.78c7.8,2.71,20,3.77,20,3.77l-5,.65S115,73.65,114,74.26s-7.79-5.08-9-6.09C103.59,66.86,97.2,61.18,96,60.78Z"/><path id="Path_777" data-name="Path 777" class="cls-1" d="M107,34.61C95.74,29,90,27.92,85.18,27.32,80,18.67,66.56.75,62.13,0c2.57,5.38,3.68,8,4.23,11.17a30.5,30.5,0,0,1,0,9A39.32,39.32,0,0,1,64.85,27c-.15.4-1.56.85-1.66.85a5.22,5.22,0,0,1,5.69,2c3.57,5.34,4.42,4.63,5.18,4.63-5.54,1.66-11.22-5-15.9-4.52a20.4,20.4,0,0,0-4.58,1.1,12.33,12.33,0,0,1,3.77-1.76A30.55,30.55,0,0,1,61,28.38,63.21,63.21,0,0,0,36.78,38.59C24.45,47.09,15.4,59.37,14.84,61.68c0,0-11,4.48-14.84,10.47,0,0,3.27-1.56,14.74.45,0,0,8.35,3.87,10.42,9.1,0,0,1.76-10.86-4.13-17.3a12.74,12.74,0,0,0-2.57,3.27,19.52,19.52,0,0,1,4.23-5.84C25.56,59.12,35.22,51.32,48.3,53s18.21,2.41,20.12,2.36c-1.1-.15-2.46-.2-5.43-.65a53.9,53.9,0,0,1-5.74-1.36c-6.13-1.81-13.68-10.16-17.91-8.5C36.53,46,35.72,47,33.51,48.35c2.11-2.57,8.55-7,13.38-7.2,6.39-.2,14,3.68,15.8,6.14s5.38,7.5,10.56,7.7A70.35,70.35,0,0,0,84,54.44s-5.89,1.66-8.2,2.06-9,4.68-9.51,7.55,7.34,5.58,9.41,5.48c6.84-.35,17-9.51,18.26-11.07a10.88,10.88,0,0,0,1.91-4s7.3-1.06,10-.31-.85,2.12,1.92,2.62c1.61.3,17.5,5.38,16.55,5.79a35.28,35.28,0,0,1-6,1.91c-1.56.2,6.54.2,9.61-2.72C128.19,61.53,125.27,43.67,107,34.61Zm-11.72,8c-3.27-3.07,15.39,1.92,16.35,7.15.6,3.27-3.67,2.87-8.35,0-2.72-1.71-5.39-4.63-8-7.15Z"/></g></g></g></svg>