<svg xmlns="http://www.w3.org/2000/svg" xmlns:xlink="http://www.w3.org/1999/xlink" width="165.41" height="185.303" viewBox="0 0 165.41 185.303">
  <defs>
    <filter id="Path_917">
      <feOffset dy="3" input="SourceAlpha"/>
      <feGaussianBlur stdDeviation="3" result="blur"/>
      <feFlood flood-color="#3e5365" result="color"/>
      <feComposite operator="out" in="SourceGraphic" in2="blur"/>
      <feComposite operator="in" in="color"/>
      <feComposite operator="in" in2="SourceGraphic"/>
    </filter>
  </defs>
  <g id="config_icon" data-name="config icon" transform="translate(-632.559 -633.775)" style="isolation: isolate">
    <path id="Path_911" data-name="Path 911" d="M160.673,42.907,87.334,1.218a9.407,9.407,0,0,0-9.257,0L4.738,42.907A9.383,9.383,0,0,0,0,51.049v83.2A9.383,9.383,0,0,0,4.738,142.4l73.338,41.689a9.408,9.408,0,0,0,9.258,0L160.673,142.4a9.383,9.383,0,0,0,4.737-8.143v-83.2A9.383,9.383,0,0,0,160.673,42.907Z" transform="translate(632.559 633.775)" fill="#fff"/>
    <path id="OUTLINE" d="M137.311,36.576,74.636,1.038a8.057,8.057,0,0,0-7.911,0L4.049,36.576A8,8,0,0,0,0,43.517v70.927a8,8,0,0,0,4.049,6.941l62.675,35.538a8.058,8.058,0,0,0,7.912,0l62.676-35.538a8,8,0,0,0,4.049-6.941V43.517A8,8,0,0,0,137.311,36.576Z" transform="translate(644.583 647.447)" fill="#336696"/>
    <g id="Group_709" data-name="Group 709" transform="translate(-1.634 215.767)">
      <g id="Group_707" data-name="Group 707">
        <g id="Group_704" data-name="Group 704">
          <path id="Path_883" data-name="Path 883" d="M10284.142,4137.5l2.615,15.883h-25.648l2.85-15.883Z" transform="translate(-9556.303 -3692.59)" fill="#fff"/>
          <path id="Path_884" data-name="Path 884" d="M23.032,0l2.616,15.883H0L2.849,0Z" transform="translate(757.057 458.38) rotate(51)" fill="#fff"/>
          <path id="Path_885" data-name="Path 885" d="M23.033,15.883,25.648,0H0L2.849,15.883Z" transform="translate(690.541 466.5) rotate(129)" fill="#fff"/>
          <path id="Path_886" data-name="Path 886" d="M23.033,15.883,25.648,0H0L2.849,15.883Z" transform="translate(669.998 494.337) rotate(90)" fill="#fff"/>
          <path id="Path_887" data-name="Path 887" d="M23.033,0l2.615,15.882H0L2.849,0Z" transform="translate(779.68 494.337) rotate(90)" fill="#fff"/>
          <path id="Path_888" data-name="Path 888" d="M23.033,0l2.615,15.882H0L2.849,0Z" transform="matrix(-0.883, 0.469, -0.469, -0.883, 753.51, 564.369)" fill="#fff"/>
          <path id="Path_889" data-name="Path 889" d="M23.033,15.883,25.648,0H0L2.849,15.883Z" transform="translate(749.734 546.499) rotate(-53)" fill="#fff"/>
          <path id="Path_890" data-name="Path 890" d="M23.033,15.883,25.648,0H0L2.849,15.883Z" transform="translate(690.447 551.057) rotate(23)" fill="#fff"/>
          <path id="Path_891" data-name="Path 891" d="M23.033,0l2.615,15.883H0L2.849,0Z" transform="translate(671.896 557.818) rotate(-129)" fill="#fff"/>
          <path id="Path_897" data-name="Path 897" d="M52.624,0A52.624,52.624,0,1,1,0,52.624,52.624,52.624,0,0,1,52.624,0Z" transform="translate(663.873 458.13)" fill="#fff"/>
          <path id="Path_898" data-name="Path 898" d="M44.949,0A44.949,44.949,0,1,1,0,44.949,44.949,44.949,0,0,1,44.949,0Z" transform="translate(671.184 465.438)" fill="#fff"/>
        </g>
        <g data-type="innerShadowGroup">
          <path id="Path_917-2" data-name="Path 917" d="M34.717,0A34.717,34.717,0,1,1,0,34.717,34.717,34.717,0,0,1,34.717,0Z" transform="translate(681.416 475.671)" fill="#336696"/>
          <g transform="matrix(1, 0, 0, 1, 634.19, 418.01)" filter="url(#Path_917)">
            <path id="Path_917-3" data-name="Path 917" d="M34.717,0A34.717,34.717,0,1,1,0,34.717,34.717,34.717,0,0,1,34.717,0Z" transform="translate(47.22 57.66)" fill="#fff"/>
          </g>
        </g>
      </g>
      <path id="Path_892" data-name="Path 892" d="M20.83,0A20.83,20.83,0,1,1,0,20.83,20.83,20.83,0,0,1,20.83,0Z" transform="translate(696.067 489.83)" fill="#336696"/>
    </g>
    <g id="Group_710" data-name="Group 710" transform="translate(0.5 216)">
      <path id="Path_893" data-name="Path 893" d="M0,24.975,7.263,35.342H23.2l7.875-10.366V0L23.653,9.347V22.264H7.613V9.347L0,0Z" transform="translate(682.184 509) rotate(-60)" fill="#fff"/>
      <path id="Path_894" data-name="Path 894" d="M16.137,0c0,10.22-.671,67.072-.671,67.072l-1.824,4.09H1.525l-1.33-4.09L0,0Z" transform="translate(713.715 518.683) rotate(-60)" fill="#fff"/>
      <path id="Path_899" data-name="Path 899" d="M0,0H9.214V6.91H0Z" transform="translate(767.902 546.299) rotate(-60)" fill="#336696"/>
    </g>
  </g>
</svg>
