<svg xmlns="http://www.w3.org/2000/svg" viewBox="0 0 165.41 185.31"><defs><style>.cls-1{fill:#fff;}.cls-2{fill:#5c3f75;}</style></defs><g id="Layer_2" data-name="Layer 2"><g id="Layer_1-2" data-name="Layer 1"><g id="_1:1_icon" data-name=" 1:1 icon"><path id="Path_912" data-name="Path 912" class="cls-1" d="M160.67,42.91,87.33,1.22a9.36,9.36,0,0,0-9.25,0L4.74,42.91A9.35,9.35,0,0,0,0,51.05v83.2a9.38,9.38,0,0,0,4.74,8.15l73.34,41.69a9.41,9.41,0,0,0,9.25,0l73.34-41.69a9.38,9.38,0,0,0,4.74-8.14V51.06A9.38,9.38,0,0,0,160.67,42.91Z"/><path id="OUTLINE" class="cls-2" d="M145.92,50.59,86.46,16A7.52,7.52,0,0,0,79,16L19.49,50.59a7.81,7.81,0,0,0-3.84,6.76v69.07a7.8,7.8,0,0,0,3.84,6.75L79,167.78a7.47,7.47,0,0,0,7.51,0l59.46-34.61a7.81,7.81,0,0,0,3.84-6.76V57.35A7.81,7.81,0,0,0,145.92,50.59Z"/><g id="Group_711" data-name="Group 711"><g id="Group_541" data-name="Group 541"><path id="Path_776" data-name="Path 776" class="cls-1" d="M58.43,86.44C51.54,88.17,41,88.16,41,88.16l4.24,1s-3.94,7-3.16,7.54,7.07-3.76,8.13-4.57C51.54,91.08,57.41,86.69,58.43,86.44Z"/><path id="Path_777" data-name="Path 777" class="cls-1" d="M51,63.19c10.09-4,15.12-4.44,19.24-4.64,5-7,18-21.37,21.79-21.7-2.59,4.41-3.73,6.57-4.47,9.25a27.35,27.35,0,0,0-.68,7.76,34.55,34.55,0,0,0,.79,5.91c.1.34,1.29.85,1.36.87a4.43,4.43,0,0,0-5,1.28c-3.46,4.29-4.14,3.62-4.8,3.57,4.6,1.81,10-3.46,14-2.69A18.91,18.91,0,0,1,97,64.08,11.49,11.49,0,0,0,94,62.29a27.9,27.9,0,0,0-3.06-1.1,55,55,0,0,1,20,10.56c9.92,8.18,16.75,19.42,17.08,21.44,0,0,9.06,4.68,11.91,10.08,0,0-2.69-1.56-12.68-.72,0,0-7.44,2.67-9.59,7,0,0-.72-9.43,4.81-14.54a11.05,11.05,0,0,1,2,3,16.81,16.81,0,0,0-3.19-5.33c-2.28-2.53-9.94-10-21.29-9.45s-15.79.69-17.44.49c1,0,2.12,0,4.7-.17a47.39,47.39,0,0,0,5-.72c5.39-1.08,12.5-7.69,16-5.94,2.32,1.16,3,2.08,4.74,3.4-1.62-2.38-6.79-6.68-11-7.18-5.45-.68-12.32,2.08-14,4.09s-5.18,6-9.65,5.81a63.36,63.36,0,0,1-9.19-1.31s4.9,1.88,6.85,2.39,7.33,4.67,7.61,7.19-6.73,4.23-8.5,4c-5.83-.8-13.89-9.44-14.84-10.86a10.31,10.31,0,0,1-1.35-3.61s-6.19-1.45-8.56-1,.58,1.88-1.84,2.08c-1.42.12-15.42,3.3-14.63,3.71a32.32,32.32,0,0,0,5,2.1c1.31.28-5.62-.33-8-3A34.22,34.22,0,0,1,51,63.19ZM60.44,71c3-2.39-13.34.5-14.56,4.88-.76,2.76,2.92,2.74,7.15.63,2.5-1.24,5-3.58,7.41-5.51Z"/></g></g><path id="Path_913" data-name="Path 913" class="cls-1" d="M66.36,108.21v3.9h4.2v17.1h4.86v-21ZM83,118.68A2.87,2.87,0,0,0,86,115.86v-.12a2.8,2.8,0,0,0-2.72-2.88H83a2.8,2.8,0,0,0-2.91,2.69v.19a2.85,2.85,0,0,0,2.78,2.94Zm0,10.77A2.87,2.87,0,0,0,86,126.63v-.12a2.8,2.8,0,0,0-2.72-2.88H83a2.8,2.8,0,0,0-2.91,2.69v.19a2.85,2.85,0,0,0,2.78,2.94Zm5.34-21.24v3.9h4.2v17.1h4.86v-21Z"/></g></g></g></svg>